<?xml version="1.0" encoding="iso-8859-1"?>
<!-- Generator: Adobe Illustrator 19.0.0, SVG Export Plug-In . SVG Version: 6.00 Build 0)  -->
<svg version="1.1" id="Layer_1" xmlns="http://www.w3.org/2000/svg" xmlns:xlink="http://www.w3.org/1999/xlink" x="0px" y="0px"
	 viewBox="0 0 382.951 382.951" style="enable-background:new 0 0 382.951 382.951;" xml:space="preserve">
<g>
	<path style="fill:#1E252B;" d="M310.408,322.374c-4.143,0-7.5-3.357-7.5-7.5s3.357-7.5,7.5-7.5c23.969,0,43.469-19.5,43.469-43.469
		s-19.5-43.469-43.469-43.469c-4.143,0-7.5-3.357-7.5-7.5s3.357-7.5,7.5-7.5c32.24,0,58.469,26.229,58.469,58.469
		C368.877,296.146,342.648,322.374,310.408,322.374z"/>
	<path style="fill:#1E252B;" d="M72.697,220.437c-32.24,0-58.47-26.229-58.47-58.469c0-32.241,26.229-58.471,58.47-58.471
		c4.143,0,7.5,3.357,7.5,7.5s-3.357,7.5-7.5,7.5c-23.97,0-43.47,19.501-43.47,43.471c0,23.969,19.5,43.469,43.47,43.469
		c4.143,0,7.5,3.357,7.5,7.5C80.197,217.079,76.84,220.437,72.697,220.437z"/>
	<g>
		<circle style="fill:#005CB9;" cx="191.552" cy="212.937" r="140.126"/>
		<path style="fill:#61B4E4;" d="M331.443,220.97c0.15-2.658,0.234-5.336,0.234-8.033c0-2.236-0.058-4.459-0.161-6.67h-54.362
			c-0.838-19.24-4.961-38.135-12.164-56.035h51.899c-2.55-5.086-5.398-9.994-8.524-14.703h-50.103
			c-3.247-6.307-6.89-12.459-10.931-18.42c-11.436-16.871-26.361-32.475-41.424-43.572c-4.721-0.48-9.51-0.727-14.355-0.727
			c-4.847,0-9.636,0.246-14.355,0.727c-15.063,11.098-29.988,26.701-41.426,43.572c-4.041,5.961-7.683,12.113-10.93,18.42H74.74
			c-3.127,4.709-5.976,9.617-8.525,14.703h51.899c-7.204,17.9-11.325,36.795-12.163,56.035H51.588
			c-0.104,2.211-0.162,4.434-0.162,6.67c0,2.697,0.084,5.375,0.234,8.033h54.291c0.838,19.242,4.959,38.137,12.163,56.037H66.903
			c2.622,5.092,5.548,9.998,8.751,14.703h49.188c3.247,6.307,6.889,12.459,10.93,18.42c10.896,16.072,24.955,30.988,39.283,41.961
			c5.412,0.635,10.915,0.971,16.498,0.971c5.582,0,11.086-0.336,16.497-0.971c14.328-10.973,28.388-25.889,39.282-41.961
			c4.041-5.961,7.684-12.113,10.931-18.42h49.188c3.204-4.705,6.13-9.611,8.751-14.703h-51.211
			c7.203-17.9,11.326-36.795,12.164-56.037H331.443z M184.201,340.548c-9.741-7.422-23.577-19.961-36.259-38.668
			c-2.269-3.348-4.397-6.738-6.388-10.17H184.2v48.838H184.201z M184.201,277.007H134.01c-7.984-17.748-12.455-36.492-13.348-56.037
			h63.539V277.007z M184.201,206.267h-63.539c0.893-19.543,5.363-38.289,13.348-56.035h50.191V206.267z M184.201,135.529h-42.646
			c1.99-3.434,4.119-6.822,6.388-10.17c12.682-18.707,26.518-31.246,36.259-38.668v48.838H184.201z M198.904,86.691
			c9.74,7.422,23.576,19.961,36.258,38.668c2.268,3.348,4.397,6.736,6.388,10.17h-42.646V86.691z M235.162,301.88
			c-12.682,18.707-26.518,31.246-36.258,38.668V291.71h42.646C239.559,295.142,237.43,298.532,235.162,301.88z M249.096,277.007
			h-50.191V220.97h63.539C261.55,240.515,257.08,259.259,249.096,277.007z M198.904,206.267v-56.035h50.191
			c7.984,17.746,12.454,36.492,13.348,56.035H198.904z"/>
	</g>
	<path style="fill:#1E252B;" d="M316.678,118.497H72.697c-4.143,0-7.5-3.357-7.5-7.5s3.357-7.5,7.5-7.5h243.98
		c4.143,0,7.5,3.357,7.5,7.5C324.178,115.14,320.82,118.497,316.678,118.497z"/>
	<path style="fill:#1E252B;" d="M310.408,322.374H66.428c-4.143,0-7.5-3.357-7.5-7.5s3.357-7.5,7.5-7.5h243.98
		c4.142,0,7.5,3.357,7.5,7.5S314.551,322.374,310.408,322.374z"/>
	<path style="fill:#333E48;" d="M57.971,227.379c7.105-0.773,15.197-0.308,24.723,8.217c9.526,8.523,16.189,33.168-2.283,71.004
		c-18.117,37.111-37.537,46.717-54.814,46.457c-14.041-0.211-23.32-7.858-24.382-9.988c-1.061-2.133-2.45-3.99,0.857-7.704
		c3.304-3.715,12.816-14.362,14.585-16.165c1.768-1.801,3.83-5.538,8.41-3.371c4.579,2.171,8.527,3.873,10.705,4.74
		c2.179,0.864,10.662,4.475,23.775-21.658c13.113-26.138,8.762-27.928,4.704-29.524c-4.055-1.596-7.385-2.873-8.958-4.04
		c-1.575-1.166-3.347-2.227-3.283-5.52c0.065-3.295,0.303-27.192,0.321-28.492C52.349,230.035,53.82,227.829,57.971,227.379z"/>
	<path style="fill:#333E48;" d="M324.978,30.148c-7.105-0.773-15.197-0.308-24.723,8.217c-9.526,8.524-16.189,33.168,2.283,71.004
		c18.117,37.111,37.537,46.717,54.815,46.457c14.041-0.211,23.32-7.858,24.382-9.988c1.062-2.133,2.45-3.99-0.857-7.704
		c-3.304-3.715-12.816-14.362-14.585-16.165c-1.768-1.801-3.83-5.538-8.41-3.371c-4.579,2.171-8.527,3.873-10.705,4.74
		c-2.179,0.864-10.662,4.475-23.774-21.658c-13.113-26.138-8.762-27.928-4.704-29.524c4.055-1.596,7.385-2.873,8.958-4.04
		c1.575-1.166,3.347-2.227,3.283-5.52c-0.065-3.295-0.303-27.192-0.321-28.492C330.599,32.804,329.129,30.598,324.978,30.148z"/>
</g>
<g>
</g>
<g>
</g>
<g>
</g>
<g>
</g>
<g>
</g>
<g>
</g>
<g>
</g>
<g>
</g>
<g>
</g>
<g>
</g>
<g>
</g>
<g>
</g>
<g>
</g>
<g>
</g>
<g>
</g>
</svg>
